#include<notes.h>
//*****************************************
// PIRATAS DO CARIBE
int piratas[] = {       //Note of the song, 0 is a rest/pulse
   NOTE_E4, NOTE_G4, NOTE_A4, NOTE_A4, 0,
   NOTE_A4, NOTE_B4, NOTE_C5, NOTE_C5, 0,
   NOTE_C5, NOTE_D5, NOTE_B4, NOTE_B4, 0,
   NOTE_A4, NOTE_G4, NOTE_A4, 0,

   NOTE_E4, NOTE_G4, NOTE_A4, NOTE_A4, 0,
   NOTE_A4, NOTE_B4, NOTE_C5, NOTE_C5, 0,
   NOTE_C5, NOTE_D5, NOTE_B4, NOTE_B4, 0,
   NOTE_A4, NOTE_G4, NOTE_A4, 0,

   NOTE_E4, NOTE_G4, NOTE_A4, NOTE_A4, 0,
   NOTE_A4, NOTE_C5, NOTE_D5, NOTE_D5, 0,
   NOTE_D5, NOTE_E5, NOTE_F5, NOTE_F5, 0,
   NOTE_E5, NOTE_D5, NOTE_E5, NOTE_A4, 0,

   NOTE_A4, NOTE_B4, NOTE_C5, NOTE_C5, 0,
   NOTE_D5, NOTE_E5, NOTE_A4, 0,
   NOTE_A4, NOTE_C5, NOTE_B4, NOTE_B4, 0,
   NOTE_C5, NOTE_A4, NOTE_B4, 0,

   NOTE_A4, NOTE_A4,

   NOTE_E5, 0, 0, NOTE_F5, 0, 0,
   NOTE_E5, NOTE_E5, 0, NOTE_G5, 0, NOTE_E5, NOTE_D5, 0, 0,
   NOTE_D5, 0, 0, NOTE_C5, 0, 0,
   NOTE_B4, NOTE_C5, 0, NOTE_B4, 0, NOTE_A4,

   NOTE_E5, 0, 0, NOTE_F5, 0, 0,
   NOTE_E5, NOTE_E5, 0, NOTE_G5, 0, NOTE_E5, NOTE_D5, 0, 0,
   NOTE_D5, 0, 0, NOTE_C5, 0, 0,
   NOTE_B4, NOTE_C5, 0, NOTE_B4, 0, NOTE_A4
};
int dur_piratas[] = {
  125, 125, 250, 125, 125,
  125, 125, 250, 125, 125,
  125, 125, 250, 125, 125,
  125, 125, 375, 125,

  125, 125, 250, 125, 125,
  125, 125, 250, 125, 125,
  125, 125, 250, 125, 125,
  125, 125, 375, 125,

  125, 125, 250, 125, 125,
  125, 125, 250, 125, 125,
  125, 125, 250, 125, 125,
  125, 125, 125, 250, 125,

  125, 125, 250, 125, 125,
  250, 125, 250, 125,
  125, 125, 250, 125, 125,
  125, 125, 375, 375,

  250, 125,


  250, 125, 375, 250, 125, 375,
  125, 125, 125, 125, 125, 125, 125, 125, 375,
  250, 125, 375, 250, 125, 375,
  125, 125, 125, 125, 125, 500,

  250, 125, 375, 250, 125, 375,
  125, 125, 125, 125, 125, 125, 125, 125, 375,
  250, 125, 375, 250, 125, 375,
  125, 125, 125, 125, 125, 500
};
//*****************************************
int notes_2[] = {       //Note of the song, 0 is a rest/pulse
	
	NOTE_C5, NOTE_C5, NOTE_C5, NOTE_C5, 0,
	NOTE_C5, NOTE_C5, NOTE_C5, 0,
	NOTE_C5, NOTE_C5, NOTE_C5, NOTE_C5, 0,
	NOTE_C5, NOTE_C5, NOTE_C5, 0,

	
	NOTE_C5, NOTE_C5, NOTE_C5, NOTE_C5, 0,
	NOTE_C5, NOTE_C5, NOTE_C5, 0,
	NOTE_C5, NOTE_C5, NOTE_C5, NOTE_C5, 0,
	NOTE_C5, NOTE_C5, NOTE_C5, 0,

NOTE_C5, NOTE_C5, NOTE_C5, NOTE_C5, 0,
NOTE_C5, NOTE_C5, NOTE_C5, 0,
NOTE_C5, NOTE_C5, NOTE_C5, NOTE_C5, 0,
NOTE_C5, NOTE_C5, NOTE_C5, 0,

	
	NOTE_C5, NOTE_C5, NOTE_C5, NOTE_C5, 0,
	NOTE_C5, NOTE_C5, NOTE_C5, 0,
	NOTE_C5, NOTE_C5, NOTE_C5, NOTE_C5, 0,
	NOTE_C5, NOTE_C5, NOTE_C5, 0,

	NOTE_C5, NOTE_C5, NOTE_C5, NOTE_C5, 0,
	NOTE_C5, NOTE_C5, NOTE_C5, 0,
	NOTE_C5, NOTE_C5, NOTE_C5, NOTE_C5, 0,
	NOTE_C5, NOTE_C5, NOTE_C5, 0,


	NOTE_A4, NOTE_B4, NOTE_C5, NOTE_C5, 0,
	NOTE_D5, NOTE_E5, NOTE_A4, 0,
	NOTE_A4, NOTE_C5, NOTE_B4, NOTE_B4, 0,
	NOTE_C5, NOTE_A4, NOTE_B4, 0,
	
	NOTE_A4, NOTE_B4, NOTE_C5, NOTE_C5, 0,
	NOTE_D5, NOTE_E5, NOTE_A4, 0,
	NOTE_A4, NOTE_C5, NOTE_B4, NOTE_B4, 0,
	NOTE_C5, NOTE_A4, NOTE_B4, 0,
	
	NOTE_A4, NOTE_B4, NOTE_C5, NOTE_C5, 0,
	NOTE_D5, NOTE_E5, NOTE_A4, 0,
	NOTE_A4, NOTE_C5, NOTE_B4, NOTE_B4, 0,
	NOTE_C5, NOTE_A4, NOTE_B4, 0,
	//End of Repeat

};
int duration_2[] = {         //duration of each note (in ms) Quarter Note is set to 250 ms
	125, 125, 125, 125, 125,
	125, 125, 125, 125, 125,
	125, 125, 125, 125, 125,
	125, 125, 125, 125,
	
	125, 125, 125, 125, 125,
	125, 125, 125, 125, 125,
	125, 125, 125, 125, 125,
	125, 125, 125, 125,
	
	
	125, 125, 125, 125, 125,
	125, 125, 125, 125, 125,
	125, 125, 125, 125, 125,
	125, 125, 125, 125,
	

	1125, 125, 125, 125, 125,
	125, 125, 125, 125, 125,
	125, 125, 125, 125, 125,
	125, 125, 125, 125,
	
	125, 125, 125, 125, 125,
	125, 125, 125, 125, 125,
	125, 125, 125, 125, 125,
	125, 125, 125, 125,
	
	125, 125, 125, 125, 125,
	125, 125, 125, 125, 125,
	125, 125, 125, 125, 125,
	125, 125, 125, 125,
	
	125, 125, 125, 125, 125,
	125, 125, 125, 125, 125,
	125, 125, 125, 125, 125,
	125, 125, 125, 125,
	
	125, 125, 250, 125, 125,
	250, 125, 250, 125,
	125, 125, 250, 125, 125,
	125, 125, 375, 375,
	//End of Repeat
	
	250, 125, 375, 250, 125, 375,
	125, 125, 125, 125, 125, 125, 125, 125, 375,
	250, 125, 375, 250, 125, 375,
	125, 125, 125, 125, 125, 500,

	250, 125, 375, 250, 125, 375,
	125, 125, 125, 125, 125, 125, 125, 125, 375,
	250, 125, 375, 250, 125, 375,
	125, 125, 125, 125, 125, 500
};